<?xml version="1.0" standalone="no"?>
<!DOCTYPE svg PUBLIC "-//W3C//DTD SVG 20010904//EN"
 "http://www.w3.org/TR/2001/REC-SVG-20010904/DTD/svg10.dtd">
<svg version="1.0" xmlns="http://www.w3.org/2000/svg"
 width="32" height="32" viewBox="0 0 159.000000 148.000000"
 preserveAspectRatio="xMidYMid meet">

<g transform="translate(0.000000,148.000000) scale(0.100000,-0.100000)"
fill="#000000" stroke="none">
<path d="M444 1445 c-207 -105 -357 -286 -416 -502 -29 -110 -29 -296 0 -406
59 -216 209 -397 416 -502 l69 -35 279 0 278 0 64 29 c201 91 365 286 427 507
31 109 31 294 1 407 -58 213 -206 395 -404 496 l-80 41 -282 0 -283 0 -69 -35z
m531 -308 c7 -27 21 -61 32 -75 31 -42 94 -82 143 -90 l45 -7 3 -74 4 -74 -56
6 c-45 4 -115 30 -177 64 -3 2 -6 -81 -5 -184 1 -207 -6 -239 -64 -313 -61
-77 -195 -118 -296 -91 -95 26 -177 112 -200 208 -38 165 79 321 256 340 l60
6 0 -80 0 -80 -28 5 c-73 10 -142 -55 -142 -137 0 -37 6 -49 39 -82 34 -34 44
-39 86 -39 54 0 95 21 119 60 14 25 16 71 16 359 l0 332 76 -3 77 -3 12 -48z"/>
</g>
</svg>
